<svg width="60" height="60" viewBox="0 0 60 60" fill="none" xmlns="http://www.w3.org/2000/svg">
<g id="thumb">
<rect id="Rectangle 25" width="60" height="60" rx="30" fill="#00A1E9"/>
<g id="character">
<path id="Vector" d="M28.7852 33.4089C28.5627 33.4089 28.3827 33.2289 28.3827 33.0064V27.6591H25.747L23.4965 34.8613C23.4401 35.0424 23.5126 35.1798 23.5609 35.2454C23.6092 35.3109 23.7184 35.4213 23.9082 35.4213H27.2603C27.4828 35.4213 27.6628 35.6013 27.6628 35.8238V36.4563C27.6628 36.6788 27.4828 36.8588 27.2603 36.8588H23.9082C23.2929 36.8588 22.7323 36.5679 22.3776 36.0619C22.0395 35.58 21.959 34.9619 22.1349 34.4002L22.4448 33.4089H15.3662C15.4065 34.8527 15.5376 36.2298 15.7601 37.5252C16.1856 40.0051 16.9353 42.1228 17.9899 43.8207C20.0466 47.1332 23.2527 48.8127 27.5191 48.8127C31.3358 48.8127 34.5753 48.025 37.1483 46.4714C40.2325 44.6096 42.3249 41.6346 43.3714 37.6258L39.1539 33.4083H28.7858L28.7852 33.4089ZM28.0935 46.4794C26.982 46.4794 26.081 44.935 26.081 43.0295C26.081 41.124 26.982 39.5796 28.0935 39.5796C29.2049 39.5796 30.1059 41.124 30.1059 43.0295C30.1059 44.935 29.2049 46.4794 28.0935 46.4794Z" fill="white"/>
<path id="Vector_2" d="M35.6546 54.4476C35.7535 54.5218 35.8759 54.5626 35.9996 54.5626C36.3164 54.5626 36.5746 54.3044 36.5746 53.9876V48.4108C34.6294 49.3412 32.4013 49.9213 29.918 50.145L35.6546 54.4476Z" fill="#00A1E9"/>
<path id="Vector_3" d="M20.7622 48.5591V53.9876C20.7622 54.3044 21.0204 54.5625 21.3372 54.5625C21.4608 54.5625 21.5833 54.5217 21.6822 54.4476L27.2831 50.2473C24.8992 50.2151 22.7833 49.6936 20.9928 48.6931C20.9152 48.65 20.8387 48.6046 20.7622 48.5591Z" fill="#00A1E9"/>
<path id="Vector_4" d="M23.3499 30.5104V27.2916H19.6108C19.287 27.467 19.0662 27.8085 19.0662 28.2024C19.0662 28.7751 19.5308 29.2397 20.1035 29.2397C20.6239 29.2397 21.0534 28.8562 21.1281 28.3565C21.2443 28.6273 21.3093 28.9257 21.3093 29.2397C21.3093 30.4782 20.3053 31.4821 19.0668 31.4821C17.8283 31.4821 16.8244 30.4782 16.8244 29.2397C16.8244 28.4054 17.2803 27.6774 17.9571 27.2916H15.7009C15.5721 28.2656 15.4766 29.2483 15.4191 30.2194C15.384 30.8123 15.3639 31.3964 15.3564 31.9714H22.8939L23.3504 30.5104H23.3499Z" fill="white"/>
<path id="Vector_5" d="M33.3392 27.2916H29.8203V31.9714H38.7326V27.2916H34.9934C34.6697 27.467 34.4489 27.8085 34.4489 28.2024C34.4489 28.7751 34.9135 29.2397 35.4862 29.2397C36.0066 29.2397 36.4361 28.8562 36.5108 28.3565C36.627 28.6273 36.6919 28.9257 36.6919 29.2397C36.6919 30.4782 35.688 31.4821 34.4495 31.4821C33.211 31.4821 32.2071 30.4782 32.2071 29.2397C32.2071 28.4054 32.663 27.6774 33.3398 27.2916H33.3392Z" fill="white"/>
<path id="Vector_6" d="M47.6293 28.8354C46.7633 28.4261 45.5587 28.5589 44.6986 29.158L44.4916 29.3023C44.3375 29.4099 44.1299 29.3961 43.9908 29.2701L43.8039 29.1005C43.2128 28.5641 42.1065 27.394 41.3326 25.5851C40.6547 23.9993 40.3793 22.2893 40.5098 20.4867C39.0045 21.0461 37.0432 21.4774 35.1107 21.352C32.1915 21.1629 29.5495 19.7622 28.0223 17.6388C26.2922 18.8083 23.8882 19.5385 21.6682 19.5385C20.3233 19.5385 19.0359 19.2562 17.89 18.7163C17.2471 20.1906 16.6859 22.0437 16.2559 24.0556L18.6455 22.1973C18.791 22.084 18.9945 22.084 19.14 22.1973L24.3143 26.2216H28.8538L34.028 22.1973C34.1735 22.084 34.377 22.084 34.5225 22.1973L40.1689 26.589V32.3929L44.3662 36.5902C45.4949 36.1981 46.6386 35.4633 47.4901 34.5709C48.8258 33.1714 49.0288 31.9013 48.9638 31.0825C48.877 29.9843 48.4153 29.2075 47.6287 28.836L47.6293 28.8354Z" fill="white"/>
<path id="Vector_7" d="M50.3975 30.9686C50.2693 29.3512 49.5046 28.1317 48.2436 27.536C47.9941 27.4181 47.729 27.3284 47.4553 27.2663C48.2465 25.2803 48.7881 22.8269 48.9255 20.5551C49.1279 17.211 48.4725 14.3499 47.0293 12.2817C45.8206 10.5492 44.3257 9.14744 42.5858 8.11592C41.0408 7.19997 39.2992 6.57151 37.4098 6.24895C34.3302 5.72284 30.7814 6.03908 27.673 7.11545C27.42 7.20342 27.1705 7.29082 26.9238 7.37764C24.8613 8.10269 23.08 8.72943 20.8876 8.72943C19.652 8.72943 17.9518 8.38674 16.8645 6.75321L16.6644 6.45249C16.5298 6.2501 16.2469 6.21215 16.0641 6.37257L15.7927 6.61061C14.7232 7.54841 13.9861 9.00197 13.717 10.7039C13.4692 12.2725 13.6497 13.8715 14.2121 15.0905C14.7273 16.2077 15.5828 17.2231 16.6437 17.9838C15.7628 19.9577 15.0228 22.5929 14.5375 25.3924L13.1552 26.4677C13.0569 26.5441 13 26.6614 13 26.7856V33.0064C13 33.2289 13.18 33.4089 13.4025 33.4089H13.928C13.9688 34.9354 14.1068 36.3936 14.3426 37.7684C14.7997 40.4317 15.6156 42.723 16.7679 44.5791C17.4895 45.7411 18.3462 46.733 19.3248 47.546V53.9875C19.3248 55.0972 20.2275 56 21.3373 56C21.7696 56 22.1986 55.8568 22.5447 55.5975L28.6683 51.0045L34.7919 55.5975C35.138 55.8568 35.567 56 35.9993 56C37.1091 56 38.0118 55.0972 38.0118 53.9875V47.6271C41.1523 45.6899 43.343 42.7225 44.5356 38.7913L46.6411 40.8969C46.7981 41.0538 47.0534 41.0538 47.2104 40.8969L47.6577 40.4495C47.8147 40.2926 47.8147 40.0373 47.6577 39.8803L45.4756 37.6982C46.5997 37.2061 47.6738 36.4609 48.5305 35.5628C49.8587 34.1707 50.5217 32.5389 50.3975 30.9686ZM15.4184 30.2194C15.4753 29.2489 15.5708 28.2656 15.7001 27.2916H17.9564C17.2802 27.678 16.8236 28.4054 16.8236 29.2397C16.8236 30.4782 17.8276 31.4821 19.0661 31.4821C20.3046 31.4821 21.3085 30.4782 21.3085 29.2397C21.3085 28.9263 21.2441 28.6273 21.1274 28.3565C21.0526 28.8561 20.6231 29.2397 20.1028 29.2397C19.5301 29.2397 19.0655 28.7751 19.0655 28.2024C19.0655 27.808 19.2857 27.4664 19.61 27.2916H23.3491V30.5104L22.8926 31.9714H15.3557C15.3632 31.3964 15.3833 30.8122 15.4184 30.2194ZM21.6823 54.4475C21.5834 54.5217 21.4609 54.5625 21.3373 54.5625C21.0204 54.5625 20.7623 54.3043 20.7623 53.9875V48.5591C20.8388 48.6045 20.9152 48.6494 20.9928 48.6931C22.7833 49.6936 24.8993 50.2151 27.2832 50.2473L21.6823 54.4475ZM36.5743 53.9875C36.5743 54.3043 36.3162 54.5625 35.9993 54.5625C35.8757 54.5625 35.7533 54.5217 35.6544 54.4475L29.9177 50.1449C32.4017 49.9218 34.6292 49.3417 36.5743 48.4108V53.9875ZM37.1476 46.4713C34.5745 48.025 31.3345 48.8127 27.5183 48.8127C23.252 48.8127 20.0458 47.1332 17.9891 43.8207C16.9352 42.1233 16.1848 40.0051 15.7593 37.5252C15.5368 36.2297 15.4063 34.8527 15.3655 33.4089H22.4435L22.1336 34.4001C21.9582 34.9619 22.0382 35.58 22.3763 36.0618C22.731 36.5673 23.2916 36.8588 23.9069 36.8588H27.259C27.4815 36.8588 27.6615 36.6788 27.6615 36.4563V35.8238C27.6615 35.6013 27.4815 35.4213 27.259 35.4213H23.9069C23.7171 35.4213 23.6079 35.3109 23.5596 35.2454C23.5113 35.1798 23.4388 35.0424 23.4952 34.8613L25.7457 27.659H28.3814V33.0064C28.3814 33.2289 28.5614 33.4089 28.7839 33.4089H39.152L43.3695 37.6264C42.323 41.6352 40.2312 44.6096 37.1464 46.4719L37.1476 46.4713ZM34.4486 31.4821C35.6871 31.4821 36.691 30.4782 36.691 29.2397C36.691 28.9263 36.6266 28.6273 36.5099 28.3565C36.4352 28.8561 36.0057 29.2397 35.4853 29.2397C34.9126 29.2397 34.448 28.7751 34.448 28.2024C34.448 27.808 34.6683 27.4664 34.9925 27.2916H38.7317V31.9714H29.8194V27.2916H33.3383C32.6621 27.678 32.2056 28.4054 32.2056 29.2397C32.2056 30.4782 33.2095 31.4821 34.448 31.4821H34.4486ZM47.491 34.5703C46.64 35.4627 45.4963 36.197 44.3671 36.5897L40.1697 32.3923V26.5884L34.5234 22.1967C34.3779 22.0834 34.1743 22.0834 34.0289 22.1967L28.8546 26.221H24.3151L19.1408 22.1967C18.9954 22.0834 18.7918 22.0834 18.6463 22.1967L16.2567 24.055C16.6868 22.0432 17.2486 20.1894 17.8908 18.7157C19.0368 19.2562 20.3241 19.538 21.669 19.538C23.889 19.538 26.293 18.8072 28.0232 17.6382C29.5503 19.7616 32.1918 21.1623 35.1116 21.3515C37.0441 21.4768 39.0054 21.0456 40.5107 20.4861C40.3801 22.2887 40.6556 23.9987 41.3335 25.5845C42.1074 27.394 43.2137 28.5635 43.8047 29.0999L43.9916 29.2696C44.1308 29.3955 44.3383 29.4093 44.4924 29.3018L44.6994 29.1574C45.559 28.5583 46.7642 28.4255 47.6301 28.8349C48.4167 29.2063 48.8784 29.9837 48.9652 31.0813C49.0302 31.9001 48.8272 33.1697 47.4915 34.5698L47.491 34.5703Z" fill="#282828"/>
<path id="Vector_8" d="M28.0935 46.4794C29.2049 46.4794 30.1059 44.9348 30.1059 43.0295C30.1059 41.1242 29.2049 39.5796 28.0935 39.5796C26.9821 39.5796 26.0811 41.1242 26.0811 43.0295C26.0811 44.9348 26.9821 46.4794 28.0935 46.4794Z" fill="#282828"/>
</g>
</g>
</svg>
